<?xml version="1.0" encoding="UTF-8"?>
<svg id="Layer_1" data-name="Layer 1" xmlns="http://www.w3.org/2000/svg" viewBox="0 0 876.45 277.68">
  <defs>
    <style>
      .cls-1 {
        fill: #52f3a3;
        stroke-width: 0px;
      }

      .cls-2 {
        fill: none;
        stroke: #52f3a3;
        stroke-miterlimit: 10;
        stroke-width: 16px;
      }
    </style>
  </defs>
  <g>
    <path class="cls-1" d="M68.41,186.27v-92.17h29.92c6.4,0,11.97,1.22,16.73,3.66,4.75,2.44,8.46,5.87,11.11,10.29,2.65,4.42,3.98,9.62,3.98,15.59v32.95c0,5.89-1.33,11.07-3.98,15.53-2.65,4.46-6.36,7.94-11.11,10.42-4.76,2.48-10.33,3.72-16.73,3.72h-29.92ZM87.35,169.22h10.98c3.79,0,6.88-1.18,9.28-3.54,2.4-2.36,3.6-5.39,3.6-9.09v-32.95c0-3.7-1.2-6.71-3.6-9.03-2.4-2.31-5.49-3.47-9.28-3.47h-10.98v58.08Z"/>
    <path class="cls-1" d="M162.85,187.53c-6.9,0-12.37-2-16.41-6-4.04-4-6.06-9.24-6.06-15.72,0-4.71,1.11-8.75,3.35-12.12,2.23-3.37,5.47-5.95,9.72-7.76,4.25-1.81,9.36-2.71,15.34-2.71h13.64v-4.42c0-2.61-.91-4.65-2.71-6.12-1.81-1.47-4.4-2.21-7.76-2.21s-5.75.63-7.64,1.89c-1.89,1.26-2.93,3.12-3.09,5.56h-17.93c.25-6.82,2.95-12.25,8.08-16.29,5.13-4.04,12.08-6.06,20.83-6.06s16.33,2.1,21.46,6.31c5.13,4.21,7.7,10.1,7.7,17.68v46.72h-18.31v-13.76h-3.03l3.41-2.02c0,3.45-.84,6.46-2.53,9.03-1.68,2.57-4.06,4.54-7.13,5.93-3.07,1.39-6.71,2.08-10.92,2.08ZM169.54,172.38c3.96,0,7.09-.99,9.41-2.97,2.31-1.98,3.47-4.57,3.47-7.77v-7.07h-13.26c-3.37,0-5.96.82-7.77,2.46-1.81,1.64-2.71,3.77-2.71,6.38s.95,4.76,2.84,6.44c1.89,1.68,4.56,2.52,8.02,2.52Z"/>
    <path class="cls-1" d="M214.54,186.27v-17.04h22.98v-35.35h-20.45v-17.04h39.39v52.4h19.95v17.04h-61.87ZM246.1,105.84c-3.45,0-6.21-.88-8.27-2.65-2.06-1.77-3.09-4.17-3.09-7.2s1.03-5.43,3.09-7.2c2.06-1.77,4.82-2.65,8.27-2.65s6.21.88,8.27,2.65c2.06,1.77,3.09,4.17,3.09,7.2s-1.03,5.43-3.09,7.2c-2.06,1.77-4.82,2.65-8.27,2.65Z"/>
    <path class="cls-1" d="M322.63,186.27c-4.88,0-9.18-1.03-12.88-3.09-3.71-2.06-6.59-4.94-8.65-8.65-2.06-3.7-3.09-8-3.09-12.88v-50.5h-22.1v-17.05h41.03v66.92c0,2.44.69,4.42,2.08,5.93,1.39,1.52,3.22,2.27,5.49,2.27h19.57v17.04h-21.46Z"/>
    <path class="cls-1" d="M356.86,208.99l9.47-26.14-26.14-66.03h19.7l11.24,30.3c.84,2.27,1.7,4.88,2.59,7.83.88,2.95,1.49,5.73,1.83,8.33.34-2.61.88-5.39,1.64-8.33.76-2.95,1.56-5.56,2.4-7.83l10.48-30.3h19.82l-33.21,92.17h-19.82Z"/>
    <path class="cls-1" d="M496.24,186.27v-92.17h22.1l23.86,71.34c-.25-3.11-.55-6.71-.88-10.79-.34-4.08-.61-8.16-.82-12.25-.21-4.08-.32-7.55-.32-10.42v-37.88h16.67v92.17h-22.1l-23.61-71.34c.25,2.69.5,5.89.76,9.6.25,3.71.48,7.45.69,11.24.21,3.79.32,7.16.32,10.1v40.4h-16.67Z"/>
    <path class="cls-1" d="M599.17,187.53c-6.15,0-11.49-1.16-16.04-3.47-4.54-2.31-8.06-5.55-10.54-9.72-2.48-4.17-3.72-9.03-3.72-14.58v-16.41c0-5.56,1.24-10.42,3.72-14.58,2.48-4.17,6-7.41,10.54-9.72,4.55-2.31,9.89-3.47,16.04-3.47s11.59,1.16,16.1,3.47c4.5,2.32,8,5.56,10.48,9.72,2.48,4.17,3.72,9.03,3.72,14.58v16.41c0,5.56-1.24,10.42-3.72,14.58-2.48,4.17-5.98,7.41-10.48,9.72-4.5,2.31-9.87,3.47-16.1,3.47ZM599.17,171.11c3.7,0,6.52-.99,8.46-2.97,1.93-1.98,2.9-4.78,2.9-8.4v-16.41c0-3.7-.97-6.52-2.9-8.46-1.94-1.94-4.76-2.9-8.46-2.9s-6.42.97-8.4,2.9c-1.98,1.94-2.97,4.76-2.97,8.46v16.41c0,3.62.99,6.42,2.97,8.4,1.98,1.98,4.78,2.97,8.4,2.97Z"/>
    <path class="cls-1" d="M679.48,186.27c-7.07,0-12.63-2.02-16.67-6.06-4.04-4.04-6.06-9.6-6.06-16.67v-29.67h-18.69v-17.04h18.69v-19.57h18.94v19.57h27.15v17.04h-27.15v29.04c0,1.85.48,3.37,1.45,4.55.97,1.18,2.38,1.77,4.23,1.77h20.83v17.04h-22.73Z"/>
    <path class="cls-1" d="M743.81,187.53c-6.14,0-11.51-1.16-16.1-3.47-4.59-2.31-8.12-5.55-10.61-9.72-2.48-4.17-3.72-9.03-3.72-14.58v-16.41c0-5.56,1.24-10.42,3.72-14.58,2.48-4.17,6.02-7.41,10.61-9.72,4.59-2.31,9.95-3.47,16.1-3.47s11.47,1.16,15.97,3.47c4.5,2.32,8,5.56,10.48,9.72,2.48,4.17,3.72,9.03,3.72,14.58v12.88h-42.55v3.54c0,4.38,1.03,7.58,3.09,9.6,2.06,2.02,5.15,3.03,9.28,3.03,2.69,0,5.05-.42,7.07-1.26,2.02-.84,3.2-2.1,3.54-3.79h18.56c-1.35,6.06-4.67,10.94-9.97,14.65-5.3,3.71-11.7,5.56-19.19,5.56ZM755.93,146.24v-3.16c0-4.29-.99-7.62-2.97-9.97-1.98-2.36-5.03-3.54-9.15-3.54s-7.22,1.22-9.28,3.66c-2.06,2.44-3.09,5.81-3.09,10.1v1.64l25.76-.25-1.26,1.52Z"/>
  </g>
  <rect class="cls-2" x="8" y="8" width="828.39" height="261.68" rx="74.71" ry="74.71"/>
</svg>